<svg xmlns="http://www.w3.org/2000/svg" viewBox="0 0 3000 3000" xmlns:xlink="http://www.w3.org/1999/xlink">
  <g id="eye">
    <defs>
      <linearGradient id="eyeColor1" x2="0%" y2="100%">
        <stop offset="0%" stop-color="#45f0f4" />
      </linearGradient>
      <linearGradient id="eyeColor2" x2="0%" y2="100%">
        <stop offset="0%" stop-color="#45f0f4" />
      </linearGradient>
    </defs>
    <circle cx="1170.2" cy="1123.7" r="129.7" fill="#fff" transform="rotate(-2.9 1184.83 1136.87)" />
    <circle cx="1170.2" cy="1123.7" r="129.7" fill="none" stroke="#31323d" stroke-width="10" stroke-miterlimit="10"
      transform="rotate(-2.9 1184.83 1136.87)" stroke-linecap="round" />
    <!-- couleur de l'oeil de gauche -->
    <circle cx="1162.1" cy="1083.6" r="75.6" fill="url(#eyeColor1)" transform="rotate(-1.3 1125.3 1048.59)" />
    <circle cx="1162.1" cy="1083.6" r="54.4" fill="#31323d" transform="rotate(-1.3 1125.3 1048.59)" />
    <circle cx="1204.1" cy="1072.2" r="18.4" fill="#fff" transform="rotate(-1.3 1165.12 1035.82)" />
    <path fill="#d1dadf" d="M1046.2 1085.5A129.8 129.8 0 0 1 1281 1056a522.5 522.5 0 0 0-234.8 29.5z" />
    <path fill="none" stroke="#31323d" stroke-width="10" stroke-miterlimit="10"
      d="M1046.2 1085.5A129.8 129.8 0 0 1 1281 1056a522.5 522.5 0 0 0-234.8 29.5z" stroke-linecap="round" />
    <circle cx="1694.9" cy="1100.9" r="129.7" fill="#fff" transform="rotate(-87.1 1694.04 1101.04)" />
    <circle cx="1694.9" cy="1100.9" r="129.7" fill="none" stroke="#31323d" stroke-width="10" stroke-miterlimit="10"
      transform="rotate(-87.1 1694.04 1101.04)" stroke-linecap="round" />
    <!-- couleur de l'oeil de droite -->
    <circle cx="1702.1" cy="1069.8" r="75.6" fill="url(#eyeColor2)" transform="none" />
    <circle cx="1702.1" cy="1069.8" r="54.4" fill="#31323d" transform="rotate(-88.7 1703.08 1069.62)" />
    <circle cx="1745.3" cy="1065.3" r="18.5" fill="#fff" transform="rotate(-88.7 1746.33 1065.08)" />
    <path fill="#d1dadf" d="M1818.9 1062.7a129.8 129.8 0 0 0-234.8-29.5 522.5 522.5 0 0 1 234.8 29.5z" />
    <path fill="none" stroke="#31323d" stroke-width="10" stroke-miterlimit="10"
      d="M1818.9 1062.7a129.8 129.8 0 0 0-234.8-29.5 522.5 522.5 0 0 1 234.8 29.5z" stroke-linecap="round" />
  </g>
</svg>